# AST/ASF file generated using VICON BodyLanguage
# -----------------------------------------------
:version 1.10
:name VICON
:units
  mass 1.0
  length 0.45
  angle deg
:documentation
   .ast/.asf automatically generated from VICON data using
   VICON BodyBuilder and BodyLanguage model FoxedUp or BRILLIANT.MOD
:root
   order TX TY TZ RX RY RZ
   axis XYZ
   position 0 0 0  
   orientation 0 0 0 
:bonedata
  begin
     id 1 
     name lhipjoint
     direction 0.588788 -0.725889 0.355548 
     length 2.37778 
     axis 0 0 0  XYZ
  end
  begin
     id 2 
     name lfemur
     direction 0.34202 -0.939693 0  
     length 6.86393  
     axis 0 0 20  XYZ
    dof rx ry rz
    limits (-160.0 20.0)
           (-70.0 70.0)
           (-60.0 70.0)
  end
  begin
     id 3 
     name ltibia
     direction 0.34202 -0.939693 0   
     length 7.32851   
     axis 0 0 20   XYZ
    dof rx
    limits (-10.0 170.0)
  end
  begin
     id 4 
     name lfoot
     direction 0.0626533 -0.172138 0.983078   
     length 1.98929   
     axis -90 7.62852e-016 20   XYZ
    dof rx rz
    limits (-45.0 90.0)
           (-70.0 20.0)
  end
  begin
     id 5 
     name ltoes
     direction 1.53647e-011 -4.21734e-011 1   
     length 1.00479   
     axis -90 7.62852e-016 20   XYZ
    dof rx
    limits (-90.0 20.0)
  end
  begin
     id 6 
     name rhipjoint
     direction -0.59141 -0.724168 0.354705   
     length 2.38343  
     axis 0 0 0  XYZ 
  end
  begin
     id 7 
     name rfemur
     direction -0.34202 -0.939693 0   
     length 6.95589   
     axis 0 0 -20   XYZ
    dof rx ry rz
    limits (-160.0 20.0)
           (-70.0 70.0)
           (-70.0 60.0)
  end
  begin
     id 8 
     name rtibia
     direction -0.34202 -0.939693 0   
     length 7.32327   
     axis 0 0 -20   XYZ
    dof rx
    limits (-10.0 170.0)
 end
 begin
     id 9 
     name rfoot
     direction -0.0660461 -0.18146 0.981178   
     length 1.85272  
     axis -90 -7.62852e-016 -20   XYZ
    dof rx rz
    limits (-45.0 90.0)
           (-20.0 70.0)
  end
  begin
     id 10 
     name rtoes
     direction -1.53586e-011 -4.21988e-011 1   
     length 0.93746   
     axis -90 -7.62852e-016 -20   XYZ
    dof rx
    limits (-90.0 20.0)
  end
  begin
     id 11 
     name lowerback
     direction -0.0107982 0.991059 0.13299   
     length 1.98691   
     axis 0 0 0   XYZ
    dof rx ry rz
    limits (-20.0 45.0)
           (-30.0 30.0)
           (-30.0 30.0)
  end
  begin
     id 12 
     name upperback
     direction 0.0076296 0.999916 0.0104576   
     length 1.99501   
     axis 0 0 0   XYZ
    dof rx ry rz
    limits (-20.0 45.0)
           (-30.0 30.0)
           (-30.0 30.0)
  end
  begin
     id 13 
     name thorax
     direction 0.01176 0.998615 -0.0512909   
     length 2.03144   
     axis 0 0 0   XYZ
    dof rx ry rz
    limits (-20.0 45.0)
           (-30.0 30.0)
           (-30.0 30.0)
  end
  begin
     id 14 
     name lowerneck
     direction -0.0171909 0.999644 0.0204011   
     length 1.71818   
     axis 0 0 0   XYZ
    dof rx ry rz
    limits (-20.0 45.0)
           (-30.0 30.0)
           (-30.0 30.0)
  end
  begin
     id 15 
     name upperneck
     direction 0.0250902 0.997482 -0.0663316   
     length 1.66199   
     axis 0 0 0   XYZ
    dof rx ry rz
    limits (-20.0 45.0)
           (-30.0 30.0)
           (-30.0 30.0)
  end
  begin
     id 16
     name head
     direction 0.00881535 0.99956 -0.0283365  
     length 1.81545  
     axis 0 0 0   XYZ
    dof rx ry rz
    limits (-20.0 45.0)
           (-30.0 30.0)
           (-30.0 30.0)
  end
  begin
     id 17 
     name lclavicle
     direction 0.840411 0.486876 -0.238035  
     length 3.30409  
     axis 0 0 0   XYZ
    dof ry rz
    limits (-20.0 10.0)
           (0.0 20.0)
  end
  begin
     id 18 
     name lhumerus
     direction 1 -4.48977e-011 -5.16239e-027   
     length 4.62672   
     axis 180 -30 -90   XYZ
    dof rx ry rz
    limits (-60.0 90.0)
           (-90.0 90.0)
           (-90.0 90.0)
  end
  begin
     id 19
     name lradius
     direction 1 -4.48977e-011 -8.71171e-027   
     length 3.11018   
     axis 180 -30 -90   XYZ
    dof rx
    limits (-10.0 170.0)
  end
  begin
     id 20
     name lwrist
     direction 1 -4.48912e-011 -1.03764e-026   
     length 1.55509   
     axis 9.09556e-015 90 90   XYZ
    dof ry
    limits (-180.0 0.0)
 end
  begin
     id 21 
     name lhand
     direction 1 -4.49072e-011 -2.07528e-026   
     length 0.743834   
     axis 1.3242e-014 90 90   XYZ
    dof rx rz
    limits (-90.0 90.0)
           (-45.0 45.0)
  end
  begin
     id 22 
     name lfingers
     direction 1 -4.48909e-011 -4.15056e-026   
     length 0.599698   
     axis 2.64841e-014 90 90   XYZ
    dof rx
    limits (0.0 90.0)
  end
  begin
     id 23
     name lthumb
     direction 0.707107 -6.35013e-011 0.707107   
     length 0.86105   
     axis -90 45 2.85299e-015   XYZ
    dof rx rz
    limits (-45.0 45.0)
           (-45.0 45.0)
  end
  begin
     id 24 
     name rclavicle
     direction -0.835208 0.500237 -0.228452   
     length 3.2716  
     axis 0 0 0   XYZ 
    dof ry rz
    limits (-10.0 20.0)
           (-20.0 0.0)
  end
  begin
     id 25 
     name rhumerus
     direction -1 -4.48978e-011 -5.1953e-028  
     length 4.55919   
     axis 180 30 90   XYZ
    dof rx ry rz
    limits (-90.0 60.0)
           (-90.0 90.0)
           (-90.0 90.0)
  end
  begin
     id 26 
     name rradius
     direction -1 -4.48961e-011 -5.99546e-027   
     length 3.22748   
     axis 180 30 90   XYZ
    dof rx
    limits (-10.0 170.0)
  end
  begin
     id 27 
     name rwrist
     direction -1 -4.48986e-011 -1.03764e-026   
     length 1.61374   
     axis 9.09556e-015 -90 -90   XYZ
    dof ry
    limits (-180.0 0.0)
  end
  begin
     id 28
     name rhand
     direction -1 -4.4899e-011 -2.07528e-026   
     length 0.700882   
     axis 1.3242e-014 -90 -90   XYZ
    dof rx rz
    limits (-90.0 90.0)
           (-45.0 45.0)
  end
  begin
     id 29
     name rfingers
     direction -1 -4.48991e-011 -4.15056e-026   
     length 0.565069   
     axis 2.64841e-014 -90 -90   XYZ
    dof rx
    limits (0.0 90.0)
  end
  begin
     id 30
     name rthumb
     direction -0.707107 -6.34804e-011 0.707107   
     length 0.811329   
     axis -90 -45 -2.85299e-015   XYZ
    dof rx rz
    limits (-45.0 45.0)
           (-45.0 45.0)
  end
:hierarchy
  begin
    root lhipjoint rhipjoint lowerback
    lhipjoint lfemur
    lfemur ltibia
    ltibia lfoot
    lfoot ltoes
    rhipjoint rfemur
    rfemur rtibia
    rtibia rfoot
    rfoot rtoes
    lowerback upperback
    upperback thorax
    thorax lowerneck lclavicle rclavicle
    lowerneck upperneck
    upperneck head
    lclavicle lhumerus
    lhumerus lradius
    lradius lwrist
    lwrist lhand lthumb
    lhand lfingers
    rclavicle rhumerus
    rhumerus rradius
    rradius rwrist
    rwrist rhand rthumb
    rhand rfingers
  end

#!OML:ASF F:\VICON\USERDATA\INSTALL\SteveWalk\SteveWalk.ASF
:FULLY-SPECIFIED
:DEGREES
96
root -0.0844433 16.208 -21.0734 16.5106 5.07785 -1.6116
lowerback -14.5912 -1.5914 3.79043
upperback -5.05742 -2.73279 2.79574
thorax 2.78609 -1.35725 0.335299
lowerneck -4.39295 -0.54366 0.627744
upperneck 10.0728 -0.449991 -3.30534
head 4.07245 -0.350198 -1.23792
rclavicle 1.11614e-014 -5.56597e-015
rhumerus -75.4262 -45.0323 -21.6887
rradius 12.1359
rwrist 39.2656
rhand -16.2949 -35.2863
rfingers 7.12502
rthumb 9.91563 -65.0328
lclavicle 1.11614e-014 -5.56597e-015
lhumerus -33.1198 -0.845205 86.5401
lradius 48.8676
lwrist 10.2188
lhand -22.6554 -18.8327
lfingers 7.12502
lthumb 3.77588 11.1136
rfemur -43.0318 1.5546 25.0635
rtibia 40.4066
rfoot -15.4104 3.13356
rtoes -15.6677
lfemur -22.0385 1.24616 -17.6154
ltibia 68.9601
lfoot 7.80875 -8.92557
ltoes -22.6564
97
root -0.0880678 16.246 -20.8712 16.6165 5.0844 -1.6826
lowerback -14.6378 -1.42261 3.68362
upperback -5.11961 -2.49457 2.8045
thorax 2.75534 -1.23898 0.443157
lowerneck -4.15443 -0.699849 0.681189
upperneck 10.0412 -0.657423 -3.38958
head 4.00897 -0.452206 -1.28262
rclavicle 3.91916e-014 -5.56597e-015
rhumerus -71.7581 -44.7791 -26.7467
rradius 12.5203
rwrist 36.221
rhand -16.1425 -35.0557
rfingers 7.12502
rthumb 10.0627 -64.7951
lclavicle 3.91916e-014 -5.56597e-015
lhumerus -33.3427 -0.77425 86.8816
lradius 46.8033
lwrist 9.32824
lhand -22.5818 -18.7274
lfingers 7.12502
lthumb 3.84694 11.2176
rfemur -42.1895 1.41107 25.3441
rtibia 40.1768
rfoot -16.6522 2.73818
rtoes -18.9066
lfemur -24.3075 1.65393 -17.6051
ltibia 70.9019
lfoot 6.90094 -7.52014
ltoes -18.6475
98
root -0.0978153 16.2854 -20.6715 16.7071 5.01091 -1.77937
lowerback -14.6775 -1.27951 3.44015
upperback -5.17726 -2.27381 2.87953
thorax 2.73295 -1.12804 0.694534
lowerneck -3.99389 -0.793688 0.601383
upperneck 10.2034 -0.777404 -3.35031
head 4.03204 -0.51262 -1.26125
rclavicle 2.18207e-014 -1.59028e-014
rhumerus -66.994 -43.7378 -33.2721
rradius 13.1003
rwrist 32.2303
rhand -15.9902 -35.8137
rfingers 7.12502
rthumb 10.2097 -65.5459
lclavicle 2.18207e-014 -1.59028e-014
lhumerus -33.5709 -0.516405 87.1709
lradius 44.6487
lwrist 8.15504
lhand -22.5784 -19.027
lfingers 7.12502
lthumb 3.85025 10.9179
rfemur -41.3082 1.4297 25.5987
rtibia 39.8896
rfoot -17.0997 2.87
rtoes -17.5988
lfemur -26.5276 2.13133 -17.5549
ltibia 72.4732
lfoot 5.91954 -5.8793
ltoes -17.5687
99
root -0.101319 16.3203 -20.4607 16.6045 5.00317 -1.55502
lowerback -14.6296 -1.24991 3.02083
upperback -5.15153 -2.17305 2.83593
thorax 2.75055 -1.07557 0.901701
lowerneck -4.02431 -0.847278 0.543351
upperneck 10.5412 -0.842942 -3.28397
head 4.15746 -0.546898 -1.23698
rclavicle -8.60015e-015 9.54166e-015
rhumerus -63.3134 -42.9977 -38.053
rradius 13.5024
rwrist 29.7911
rhand -15.8722 -35.956
rfingers 7.12502
rthumb 10.3235 -65.6826
lclavicle -8.60015e-015 9.54166e-015
lhumerus -33.8477 -0.108418 87.3025
lradius 42.4063
lwrist 6.73026
lhand -22.0046 -19.394
lfingers 7.12502
lthumb 4.40429 10.5402
rfemur -40.093 1.27152 25.4925
rtibia 39.5374
rfoot -17.5689 2.90983
rtoes -16.3908
lfemur -28.1927 2.39767 -17.9103
ltibia 73.6708
lfoot 4.60797 -4.07946
ltoes -19.977
100
root -0.0991346 16.3486 -20.2541 16.7336 4.84568 -1.19907
lowerback -14.814 -1.19014 2.56801
upperback -5.13694 -2.03526 2.72394
thorax 2.87807 -1.00407 1.05777
lowerneck -4.11924 -0.939951 0.554994
upperneck 10.7808 -0.960082 -3.30575
head 4.25987 -0.607647 -1.25684
rclavicle 2.03651e-014 -1.74931e-014
rhumerus -59.9314 -42.2464 -42.3254
rradius 13.8628
rwrist 27.5721
rhand -15.9755 -35.2006
rfingers 7.12502
rthumb 10.2238 -64.9322
lclavicle 2.03651e-014 -1.74931e-014
lhumerus -34.019 0.365293 87.335
lradius 40.027
lwrist 5.35728
lhand -20.4823 -19.4725
lfingers 7.12502
lthumb 5.87414 10.4261
rfemur -39.1479 1.17242 25.1718
rtibia 39.1617
rfoot -18.2126 2.89091
rtoes -16.2477
lfemur -29.9875 2.67373 -18.5316
ltibia 74.5567
lfoot 3.60268 -2.57968
ltoes -18.9082
101
root -0.0991541 16.3784 -20.0497 16.9347 4.68202 -1.01155
lowerback -15.1246 -1.11854 2.21276
upperback -5.11458 -1.90196 2.689
thorax 3.07864 -0.934662 1.23767
lowerneck -4.00394 -1.03133 0.574465
upperneck 10.8166 -1.0747 -3.39551
head 4.24685 -0.66694 -1.29527
rclavicle 1.53724e-014 4.77083e-015
rhumerus -55.7928 -40.425 -47.847
rradius 14.5761
rwrist 24.0263
rhand -16.1653 -34.8194
rfingers 7.12502
rthumb 10.0407 -64.5599
lclavicle 1.53724e-014 4.77083e-015
lhumerus -34.065 1.00309 87.3164
lradius 37.4999
lwrist 4.0708
lhand -19.6057 -19.5281
lfingers 7.12502
lthumb 6.72042 10.3452
rfemur -38.293 1.22621 24.9929
rtibia 38.7544
rfoot -18.7358 2.9276
rtoes -15.3931
lfemur -31.8542 2.97503 -18.9418
ltibia 75.1488
lfoot 3.20816 -1.35338
ltoes -14.7133
102
root -0.0987375 16.4034 -19.8416 16.8718 4.47892 -0.996873
lowerback -15.2515 -1.00309 2.05025
upperback -4.99805 -1.73464 2.67544
thorax 3.27278 -0.849663 1.34104
lowerneck -3.93887 -1.09559 0.544512
upperneck 10.8697 -1.15194 -3.44843
head 4.25115 -0.708561 -1.31148
rclavicle -5.55821e-015 -7.95139e-015
rhumerus -51.3056 -37.3444 -54.3165
rradius 15.8295
rwrist 19.1881
rhand -16.2446 -35.6554
rfingers 7.12502
rthumb 9.96423 -65.3996
lclavicle -5.55821e-015 -7.95139e-015
lhumerus -34.1613 1.75474 87.2276
lradius 35.0203
lwrist 2.63596
lhand -19.9448 -18.8899
lfingers 7.12502
lthumb 6.39307 10.9937
rfemur -37.1122 1.45758 24.9587
rtibia 38.2842
rfoot -19.2972 2.90669
rtoes -14.6038
lfemur -33.3516 3.34549 -19.1582
ltibia 75.4916
lfoot 2.53325 -0.346871
ltoes -11.8392
103
root -0.097208 16.4228 -19.6337 16.6546 4.21648 -1.10706
lowerback -15.1781 -0.824565 2.05182
upperback -4.90773 -1.49921 2.6536
thorax 3.32551 -0.73265 1.35918
lowerneck -3.8218 -1.22216 0.480268
upperneck 10.9487 -1.31359 -3.46887
head 4.2525 -0.791549 -1.31424
rclavicle -5.89987e-015 3.18055e-015
rhumerus -47.8532 -34.151 -59.6565
rradius 17.2825
rwrist 14.6938
rhand -16.3493 -36.7568
rfingers 7.12502
rthumb 9.8632 -66.5058
lclavicle -5.89987e-015 3.18055e-015
lhumerus -34.4655 2.47626 87.0651
lradius 32.6996
lwrist 1.04397
lhand -20.3979 -17.4745
lfingers 7.12502
lthumb 5.95564 12.4218
rfemur -35.7889 1.78229 25.029
rtibia 37.7568
rfoot -19.8405 2.98711
rtoes -14.3855
lfemur -34.6273 3.78673 -19.271
ltibia 75.6369
lfoot 1.37348 0.510191
ltoes -10.2971
104
root -0.0966726 16.4494 -19.425 16.4731 4.17995 -0.959013
lowerback -14.9887 -0.771922 1.81257
upperback -4.96767 -1.38167 2.55998
thorax 3.16331 -0.675148 1.41921
lowerneck -3.49911 -1.36084 0.394648
upperneck 11.1291 -1.50471 -3.33986
head 4.24932 -0.882266 -1.26255
rclavicle -9.00743e-016 -3.18055e-015
rhumerus -45.5281 -31.2682 -63.653
rradius 18.7654
rwrist 10.9456
rhand -16.6321 -37.6193
rfingers 7.12502
rthumb 9.59036 -67.381
lclavicle -9.00743e-016 -3.18055e-015
lhumerus -35.0397 3.16998 86.7964
lradius 30.3911
lwrist -0.328711
lhand -20.2919 -16.8491
lfingers 7.12502
lthumb 6.05798 13.0443
rfemur -34.5172 1.90183 24.8618
rtibia 37.2391
rfoot -20.3334 3.05313
rtoes -14.3004
lfemur -35.8314 3.94593 -19.6257
ltibia 75.4829
lfoot 0.0974941 1.17895
ltoes -9.07425
105
root -0.0957366 16.4645 -19.2213 16.4298 4.25206 -0.610966
lowerback -14.9457 -0.822835 1.39329
upperback -5.00008 -1.38063 2.44075
thorax 3.1135 -0.674075 1.53174
lowerneck -3.48901 -1.39165 0.271866
upperneck 11.5229 -1.54893 -3.14158
head 4.39044 -0.902615 -1.18225
rclavicle 1.89653e-014 -2.46493e-014
rhumerus -43.4939 -28.7386 -66.9117
rradius 20.1175
rwrist 7.8894
rhand -16.8725 -37.9049
rfingers 7.12502
rthumb 9.35833 -67.6772
lclavicle 1.89653e-014 -2.46493e-014
lhumerus -35.4415 4.24678 86.3252
lradius 27.8436
lwrist -1.99832
lhand -19.4148 -17.7253
lfingers 7.12502
lthumb 6.90471 12.1421
rfemur -33.3222 1.94948 24.4841
rtibia 36.7734
rfoot -20.9503 2.76716
rtoes -14.6863
lfemur -37.1359 3.90163 -20.1762
ltibia 75.1298
lfoot -0.991325 1.53088
ltoes -7.47725
106
root -0.0946701 16.4649 -19.0161 16.2764 4.29118 -0.407397
lowerback -14.9473 -0.861997 1.09825
upperback -4.89526 -1.39075 2.39056
thorax 3.23081 -0.678377 1.64327
lowerneck -3.54915 -1.38339 0.277867
upperneck 11.6906 -1.52564 -3.21419
head 4.46374 -0.895885 -1.21059
rclavicle 2.49537e-014 -1.51076e-014
rhumerus -41.4827 -26.3884 -69.6994
rradius 21.3293
rwrist 5.33602
rhand -16.9405 -37.3891
rfingers 7.12502
rthumb 9.29272 -67.1643
lclavicle 2.49537e-014 -1.51076e-014
lhumerus -35.5754 5.95821 85.5041
lradius 25.1709
lwrist -4.75571
lhand -18.0905 -19.4577
lfingers 7.12502
lthumb 8.18302 10.3639
rfemur -32.0021 1.87495 24.3139
rtibia 36.3662
rfoot -21.719 2.70369
rtoes -13.8546
lfemur -38.2988 3.87001 -20.5548
ltibia 74.6033
lfoot -2.05209 1.73323
ltoes -5.10358
107
root -0.0930091 16.4748 -18.8077 16.0698 4.29338 -0.426169
lowerback -14.9211 -0.824473 1.06322
upperback -4.72746 -1.3387 2.35229
thorax 3.39213 -0.652704 1.63116
lowerneck -3.58356 -1.39598 0.324038
upperneck 11.635 -1.54281 -3.25279
head 4.44959 -0.903932 -1.23231
rclavicle -1.13369e-015 1.43125e-014
rhumerus -39.6897 -23.4687 -72.6205
rradius 23.0645
rwrist 2.17266
rhand -16.9797 -38.2592
rfingers 7.12502
rthumb 9.25492 -68.0361
lclavicle -1.13369e-015 1.43125e-014
lhumerus -35.7696 7.76522 84.4866
lradius 22.8379
lwrist -7.78181
lhand -17.7987 -17.5437
lfingers 7.12502
lthumb 8.46463 12.2666
rfemur -30.8192 1.55095 24.4747
rtibia 36.0501
rfoot -22.2202 3.53003
rtoes -10.527
lfemur -39.3767 3.94932 -20.7361
ltibia 73.8225
lfoot -3.18458 2.04484
ltoes -4.12553
